%
T1C.01181F095S3
X061893Y049107G85X061617Y049107
X061893Y051332G85X061617Y051332
T2C.012F095S3
X036153Y035591
X03707Y035829
X038164Y036421
X036589Y036504
X036998Y037289
X037797Y037318
X036488Y037665
X036153Y039289
X037727Y039648
X03797Y040633
X035944Y040839
X038119Y041714
X037845Y042051
X035912Y042505
X035933Y044212
X035927Y04559
X036267Y046785
X037963Y047292
X03675Y047975
X036413Y049039
X04084Y048479
X038508Y045458
X040011Y04501
X040578Y044942
X03857Y04417
X040116Y043226
X03857Y042167
X039376Y041568
X040404Y041475
X040108Y040625
X03974Y040611
X040621Y040161
X038835Y039623
X03978Y039538
X038868Y038602
X039419Y037588
X040486Y036754
X039677Y036346
X04001Y035385
X038432Y035222
X042154Y035432
X043341Y038039
X042424Y038335
X042809Y039696
X041977Y04037
X043373Y040904
X041813Y042323
X043265Y043076
X042477Y04329
X042674Y043627
X042519Y044063
X041902Y044139
X042138Y044605
X043092Y044793
X042168Y044822
X042067Y048602
X04243Y048791
X042123Y048898
X04168Y04928
X042633Y049702
X04321Y051733
X045174Y051821
X044155Y051161
X043439Y05066
X045541Y050631
X045331Y050411
X044983Y050368
X045396Y047878
X044915Y047797
X044431Y047101
X044204Y046891
X044959Y046833
X043954Y0453
X045109Y044985
X044338Y044451
X044617Y044306
X04407Y044298
X044717Y043678
X044147Y043162
X045832Y04261
X043534Y042366
X045009Y041968
X044838Y041072
X044304Y040132
X043901Y039649
X045278Y038162
X043456Y036203
X04544Y035964
X044644Y035347
X048324Y035476
X047105Y035824
X047413Y036714
X045954Y038175
X048291Y038324
X048405Y039413
X047247Y039649
X046145Y040003
X047198Y040178
X046684Y040278
X046432Y040944
X046377Y041926
X047289Y042311
X047922Y042601
X047796Y044899
X046442Y045675
X047699Y046866
X046776Y048683
X046158Y050201
X046845Y050215
X046467Y050217
X048047Y050758
X047004Y051817
X048487Y051834
X050477Y051824
X049735Y051234
X049249Y050243
X048872Y050217
X049252Y04953
X048494Y049506
X050074Y049475
X050594Y048585
X049878Y046836
X050779Y045904
X048718Y045831
X050044Y044826
X050543Y043213
X049551Y042622
X048935Y04246
X049274Y041348
X048828Y041032
X04965Y040994
X049974Y040787
X048698Y04012
X049595Y039463
X050859Y039423
X050395Y038735
X049289Y038372
X04893Y038183
X049676Y037994
X050246Y037837
X048596Y037831
X050059Y037559
X049005Y036864
X050644Y036843
X050859Y035457
X04949Y035415
X052341Y035457
X051543Y036717
X052203Y037122
X051939Y037911
X051219Y038631
X052146Y039247
X050995Y040191
X05197Y040263
X051588Y040698
X051191Y041159
X053109Y041363
X052954Y042479
X052082Y042547
X052355Y042679
X052447Y044981
X053356Y04574
X051909Y046608
X053166Y046889
X052669Y048208
X05114Y048637
X05259Y049191
X052474Y050059
X050986Y050104
X051583Y050153
X051934Y050594
X051691Y050603
X05247Y050757
X053006Y050946
X051733Y051201
X05168Y051527
X054824Y051917
X053587Y05089
X0543Y050069
X055756Y050011
X053796Y04921
X053924Y048784
X053702Y048552
X053988Y048459
X054176Y048127
X053615Y048123
X055329Y047813
X054494Y046791
X055778Y045488
X054491Y04502
X054872Y043281
X053904Y042933
X054466Y042843
X054124Y042715
X053833Y042639
X053476Y042383
X055433Y041304
X055044Y040768
X055014Y039659
X055004Y038606
X055017Y03763
X0537Y037452
X053965Y037124
X055682Y036935
X054695Y036766
X053439Y036717
X053791Y035291
X055656Y035247
X05723Y035316
X05723Y035834
X058063Y03646
X057081Y036946
X056349Y042259
X057961Y042289
X057219Y043057
X05756Y044859
X056559Y045119
X057798Y045219
X056168Y04626
X057736Y046847
X056702Y047109
X057446Y047654
X055937Y048156
X055969Y048887
X055982Y049624
X058003Y04978
X056243Y049988
X057817Y050033
X05724Y050191
X056798Y050265
X056672Y051915
X057252Y052602
X057328Y054002
X058123Y056261
X060474Y055989
X060137Y054692
X058492Y054064
X06013Y053935
X060413Y053352
X060044Y053147
X060413Y052983
X060768Y05269
X058416Y05265
X060031Y052546
X059854Y051054
X058897Y050298
X060234Y050234
X059922Y049593
X059547Y049559
X060164Y049531
X058856Y049424
X060236Y049254
X059553Y049246
X059917Y049235
X05957Y048923
X060241Y048907
X059905Y048906
X058887Y048426
X059654Y04753
X060556Y04667
X059069Y045722
X060502Y045426
X058696Y044333
X059789Y043861
X060767Y041857
X058906Y041387
X05983Y040504
X059217Y040287
X059971Y039459
X059153Y038962
X060598Y038097
X059254Y037507
X060544Y037465
X059919Y036576
X0589Y036473
X059055Y036076
X060554Y035867
X059931Y035398
X059106Y035328
X061535Y035444
X061278Y035946
X061676Y036666
X061298Y037415
X061279Y038032
X061623Y039507
X061693Y040835
X061804Y042457
X061844Y044527
X061284Y044891
X061455Y049515
X060965Y053028
X061608Y054653
X061517Y055564
X061496Y05633
T3C.02165F197S55
X060909Y049446
X060909Y050993
T4C.02362F197S55
X037783Y041673
X040783Y041673
X037783Y042673
X040783Y042673
X037783Y043673
X040783Y043673
X037783Y044673
X040783Y044673
X037783Y045673
X040783Y045673
T5C.02756F197S55
X040811Y036418
X038842Y036418
X039826Y037402
X038503Y038465
X037715Y038465
X03929Y038465
X040489Y038513
X041277Y038513
X042064Y038513
T6C.0315F197S55
X044098Y035628
X045082Y035628
X046067Y035628
T7C.035F197S55
X042843Y040701
X045835Y040701
X046761Y042991
X047549Y042991
X048336Y042991
X060512Y043346
X049911Y042991
X049124Y042991
X060512Y042346
X060512Y041346
X060512Y040346
X060512Y039346
M30
