*
*
G04 PADS 9.5 Build Number: 522968 generated Gerber (RS-274-X) file*
G04 PC Version=2.1*
*
%IN "Pamonitor_20150728a.pcb"*%
*
%MOIN*%
*
%FSLAX35Y35*%
*
*
*
*
G04 PC Standard Apertures*
*
*
G04 Thermal Relief Aperture macro.*
%AMTER*
1,1,$1,0,0*
1,0,$1-$2,0,0*
21,0,$3,$4,0,0,45*
21,0,$3,$4,0,0,135*
%
*
*
G04 Annular Aperture macro.*
%AMANN*
1,1,$1,0,0*
1,0,$2,0,0*
%
*
*
G04 Odd Aperture macro.*
%AMODD*
1,1,$1,0,0*
1,0,$1-0.005,0,0*
%
*
*
G04 PC Custom Aperture Macros*
*
*
*
*
*
*
G04 PC Aperture Table*
*
%ADD010C,0.001*%
%ADD046C,0.00394*%
%ADD093C,0.0355*%
%ADD094R,0.02565X0.02369*%
%ADD095R,0.06X0.038*%
%ADD096R,0.02369X0.02565*%
%ADD099R,0.038X0.06*%
%ADD100R,0.02762X0.01581*%
%ADD104O,0.05715X0.02762*%
%ADD105R,0.064X0.064*%
%ADD106C,0.064*%
%ADD107C,0.05124*%
%ADD108C,0.04337*%
%ADD110R,0.10636X0.20085*%
%ADD111R,0.11424X0.20085*%
%ADD112O,0.028X0.078*%
%ADD113R,0.029X0.046*%
%ADD114R,0.02762X0.04337*%
%ADD115R,0.08274X0.03746*%
%ADD116R,0.04337X0.02762*%
%ADD117R,0.0355X0.02565*%
%ADD118R,0.02408X0.06699*%
%ADD119R,0.12605X0.12605*%
%ADD120R,0.046X0.029*%
%ADD121R,0.10636X0.10636*%
*
*
*
*
G04 PC Circuitry*
G04 Layer Name Pamonitor_20150728a.pcb - circuitry*
%LPD*%
*
*
G04 PC Custom Flashes*
G04 Layer Name Pamonitor_20150728a.pcb - flashes*
%LPD*%
*
*
G04 PC Circuitry*
G04 Layer Name Pamonitor_20150728a.pcb - circuitry*
%LPD*%
*
G54D10*
G54D46*
G01X357051Y496006D02*
X423980D01*
Y566872*
X620830*
Y350337*
X357051*
Y496006*
X614035Y366815D02*
G75*
G03X614035I-5905J0D01*
G01X613622Y551839D02*
G03X613622I-5905J0D01*
G01X379559Y365898D02*
G03X379559I-5905J0D01*
G54D93*
G01X407827Y416732D03*
Y426732D03*
Y436732D03*
Y446732D03*
Y456732D03*
X377827D03*
Y446732D03*
Y436732D03*
Y426732D03*
Y416732D03*
G54D94*
X421991Y440650D03*
Y444193D03*
X570565Y470926D03*
Y474469D03*
X421061Y479682D03*
Y483226D03*
X542760Y489201D03*
Y485657D03*
X551736Y500292D03*
Y503835D03*
X501244Y506028D03*
Y509572D03*
X546492Y492858D03*
Y496402D03*
X550354Y492858D03*
Y496402D03*
X542681Y492858D03*
Y496402D03*
X546744Y481665D03*
Y485209D03*
X550583Y481665D03*
Y485209D03*
X509020Y506028D03*
Y509572D03*
X505012D03*
Y506028D03*
X570051Y496280D03*
Y492736D03*
X556547Y504068D03*
Y507611D03*
X573827Y492736D03*
Y496280D03*
X570051Y486547D03*
Y483004D03*
G54D95*
X481053Y491754D03*
Y498644D03*
X457604Y491754D03*
Y498644D03*
X449455Y491754D03*
Y498644D03*
X465470Y491754D03*
Y498644D03*
X441203Y491754D03*
Y498644D03*
X473266Y491754D03*
Y498644D03*
X488825Y491754D03*
Y498644D03*
X496077Y491754D03*
Y498644D03*
G54D96*
X428498Y483856D03*
X424955D03*
X547138Y475055D03*
X550681D03*
X546909Y489142D03*
X550453D03*
X428472Y479953D03*
X424929D03*
X513909Y515316D03*
X510366D03*
X506728D03*
X503185D03*
G54D99*
X429203Y442620D03*
X436093D03*
G54D100*
X560689Y503725D03*
Y507662D03*
X566201Y505694D03*
G54D104*
X617551Y491075D03*
Y513319D03*
G54D105*
X605122Y393457D03*
G54D106*
Y403457D03*
Y413457D03*
Y423457D03*
Y433457D03*
X428433Y407008D03*
X458354D03*
X467614Y429913D03*
X475488D03*
X483362D03*
X491236D03*
X499110D03*
G54D107*
X440980Y356283D03*
X450823D03*
X460665D03*
G54D108*
X388421Y364176D03*
X408106D03*
X398264Y374018D03*
X412768Y385134D03*
X420642D03*
X404894D03*
X385028Y384646D03*
X377154D03*
X392902D03*
G54D110*
X593268Y555343D03*
X573441D03*
X376413Y486657D03*
G54D111*
X396886D03*
G54D112*
X522587Y442350D03*
X517587D03*
X512587D03*
X507587D03*
X502587D03*
X497587D03*
X492587D03*
X487587D03*
X482587D03*
X477587D03*
X472587D03*
X467587D03*
X462587D03*
X457587D03*
Y479950D03*
X462587D03*
X467587D03*
X472587D03*
X477587D03*
X482587D03*
X487587D03*
X492587D03*
X497587D03*
X502587D03*
X507587D03*
X512587D03*
X517587D03*
X522587D03*
G54D113*
X521386Y514583D03*
Y504741D03*
G54D114*
X539098Y514792D03*
X542839D03*
X546579D03*
Y504162D03*
X539098D03*
G54D115*
X530902Y505040D03*
Y513898D03*
G54D116*
X565500Y496882D03*
Y493142D03*
Y489402D03*
X554870D03*
Y496882D03*
X565701Y482327D03*
Y478587D03*
Y474846D03*
X555071D03*
Y482327D03*
G54D117*
X552232Y507749D03*
Y513261D03*
X513386Y506099D03*
Y511611D03*
G54D118*
X421094Y473484D03*
X426094D03*
X431094D03*
X436094D03*
Y453012D03*
X431094D03*
X426094D03*
X421094D03*
G54D119*
X582547Y356213D03*
G54D120*
X557976Y513017D03*
X567819D03*
G54D121*
X564409Y357197D03*
X615945Y468335D03*
Y483610D03*
X615189Y522575D03*
Y537803D03*
G74*
X0Y0D02*
M02*
